<?xml version="1.0" encoding="UTF-8" standalone="no"?>
<!-- Created with Inkscape (http://www.inkscape.org/) -->

<svg
   xmlns:dc="http://purl.org/dc/elements/1.1/"
   xmlns:cc="http://creativecommons.org/ns#"
   xmlns:rdf="http://www.w3.org/1999/02/22-rdf-syntax-ns#"
   xmlns:svg="http://www.w3.org/2000/svg"
   xmlns="http://www.w3.org/2000/svg"
   xmlns:sodipodi="http://sodipodi.sourceforge.net/DTD/sodipodi-0.dtd"
   xmlns:inkscape="http://www.inkscape.org/namespaces/inkscape"
   width="300"
   height="200"
   id="svg2"
   version="1.1"
   inkscape:version="0.48.4 r9939"
   sodipodi:docname="top-view.svg"
   inkscape:export-filename="/home/lusth/l1/top-view.png"
   inkscape:export-xdpi="90"
   inkscape:export-ydpi="90">
  <defs
     id="defs4" />
  <sodipodi:namedview
     id="base"
     pagecolor="#ffffff"
     bordercolor="#666666"
     borderopacity="1.0"
     inkscape:pageopacity="0.0"
     inkscape:pageshadow="2"
     inkscape:zoom="0.9875"
     inkscape:cx="162.02532"
     inkscape:cy="59.493671"
     inkscape:document-units="px"
     inkscape:current-layer="layer1"
     showgrid="true"
     guidetolerance="10000"
     objecttolerance="10000"
     inkscape:window-width="1366"
     inkscape:window-height="719"
     inkscape:window-x="0"
     inkscape:window-y="25"
     inkscape:window-maximized="1">
    <inkscape:grid
       type="xygrid"
       id="grid2985"
       empspacing="10"
       visible="true"
       enabled="true"
       snapvisiblegridlinesonly="true"
       spacingy="10px"
       spacingx="10px" />
  </sodipodi:namedview>
  <metadata
     id="metadata7">
    <rdf:RDF>
      <cc:Work
         rdf:about="">
        <dc:format>image/svg+xml</dc:format>
        <dc:type
           rdf:resource="http://purl.org/dc/dcmitype/StillImage" />
        <dc:title></dc:title>
      </cc:Work>
    </rdf:RDF>
  </metadata>
  <g
     inkscape:label="Layer 1"
     inkscape:groupmode="layer"
     id="layer1"
     transform="translate(0,-852.36218)">
    <path
       sodipodi:type="arc"
       style="fill:#ff00ff"
       id="path3021"
       sodipodi:cx="200"
       sodipodi:cy="130"
       sodipodi:rx="50"
       sodipodi:ry="50"
       d="m 250,130 c 0,27.61424 -22.38576,50 -50,50 -27.61424,0 -50,-22.38576 -50,-50 0,-27.61424 22.38576,-50 50,-50 27.61424,0 50,22.38576 50,50 z"
       transform="translate(0,852.36218)" />
    <path
       sodipodi:type="arc"
       style="fill:#ff00ff"
       id="path3019"
       sodipodi:cx="200"
       sodipodi:cy="75"
       sodipodi:rx="50"
       sodipodi:ry="55"
       d="m 250,75 c 0,30.37566 -22.38576,55 -50,55 -27.61424,0 -50,-24.62434 -50,-55 0,-30.375661 22.38576,-55 50,-55 27.61424,0 50,24.624339 50,55 z"
       transform="matrix(1,0,0,0.89873418,0,854.3875)" />
    <path
       sodipodi:type="arc"
       style="fill:#ff00ff"
       id="path3015"
       sodipodi:cx="110"
       sodipodi:cy="75"
       sodipodi:rx="60"
       sodipodi:ry="55"
       d="m 170,75 c 0,30.37566 -26.86292,55 -60,55 -33.137085,0 -60,-24.62434 -60,-55 0,-30.375661 26.862915,-55 60,-55 33.13708,0 60,24.624339 60,55 z"
       transform="matrix(0.83122363,0,0,0.90794016,8.4388186,854.20338)" />
    <path
       sodipodi:type="arc"
       style="fill:#ff00ff"
       id="path3017"
       sodipodi:cx="110"
       sodipodi:cy="125"
       sodipodi:rx="60"
       sodipodi:ry="55"
       d="m 170,125 c 0,30.37566 -26.86292,55 -60,55 -33.137085,0 -60,-24.62434 -60,-55 0,-30.375661 26.862915,-55 60,-55 33.13708,0 60,24.624339 60,55 z"
       transform="matrix(0.84810127,0,0,0.89873418,7.5949367,870.59003)" />
    <rect
       style="fill:#000080"
       id="rect2987"
       width="100"
       height="60"
       x="100"
       y="70"
       transform="translate(0,852.36218)" />
    <rect
       style="fill:#ff0000"
       id="rect2989"
       width="50"
       height="60"
       x="200"
       y="70"
       transform="translate(0,852.36218)" />
    <rect
       style="fill:#ff0000"
       id="rect3009"
       width="50.886074"
       height="60"
       x="49.113926"
       y="922.36218" />
    <rect
       style="fill:#00ff00"
       id="rect3011"
       width="100"
       height="50"
       x="100"
       y="130"
       transform="translate(0,852.36218)" />
    <rect
       style="fill:#00ff00"
       id="rect3013"
       width="100"
       height="50"
       x="100"
       y="20"
       transform="translate(0,852.36218)" />
  </g>
</svg>
